<?xml version="1.0" standalone="no"?>
<!DOCTYPE svg PUBLIC "-//W3C//DTD SVG 20010904//EN"
 "http://www.w3.org/TR/2001/REC-SVG-20010904/DTD/svg10.dtd">
<svg version="1.0" xmlns="http://www.w3.org/2000/svg"
 width="250.000000pt" height="250.000000pt" viewBox="0 0 250.000000 250.000000"
 preserveAspectRatio="xMidYMid meet">
<metadata>
Created by potrace 1.14, written by Peter Selinger 2001-2017
</metadata>
<g transform="translate(0.000000,250.000000) scale(0.100000,-0.100000)"
fill="#000000" stroke="none">
<path d="M617 2453 c-1 0 -56 -4 -122 -8 -159 -9 -203 -12 -212 -18 -4 -3 -8
-152 -8 -331 1 -312 0 -325 -17 -309 -14 13 -39 16 -124 15 -58 0 -108 -3
-110 -5 -4 -4 86 -103 213 -235 29 -30 53 -55 53 -57 0 -1 33 -38 74 -81 41
-43 99 -106 130 -139 l56 -60 0 -263 0 -263 90 2 90 1 0 262 0 261 61 65 c34
36 88 94 120 129 l59 63 0 -331 c0 -182 1 -331 3 -332 1 -1 78 -3 171 -5 94
-3 172 -6 174 -9 2 -2 5 -25 6 -52 l1 -48 173 -3 172 -2 0 -314 0 -313 68 -3
c37 -1 94 -3 127 -5 33 -2 111 -7 173 -10 l112 -7 1 43 c0 24 0 171 0 327 l0
282 120 0 120 0 -2 90 -1 90 -87 1 c-47 0 -99 2 -116 2 l-30 2 0 137 -1 138
43 0 43 0 1 68 c1 74 -1 105 -7 112 -3 2 -22 4 -42 3 l-37 -2 0 134 c0 73 2
136 5 139 3 3 56 6 118 7 l112 1 0 89 c0 85 -1 89 -22 90 -13 0 -66 1 -118 2
l-95 2 -1 315 c-1 173 -2 321 -3 327 -1 9 -19 11 -63 8 -63 -4 -243 -14 -351
-20 -32 -2 -61 -5 -64 -8 -2 -3 -5 -145 -5 -315 l0 -310 -104 0 -104 0 0 51
c-2 256 -9 566 -12 582 -5 18 -13 20 -79 19 -41 -1 -126 -4 -189 -9 -63 -4
-133 -9 -155 -10 -22 -1 -43 -3 -47 -4 -5 0 -8 -160 -8 -353 l-1 -353 -82 -86
c-45 -47 -119 -126 -164 -175 l-82 -89 -91 95 c-50 52 -95 103 -101 113 -11
19 -24 17 192 20 l86 1 23 33 c23 34 23 37 24 360 1 302 0 330 -20 391 l-21
67 -57 0 c-32 0 -58 -1 -59 -2z m-364 -712 c20 -25 24 -39 23 -85 -1 -33 2
-56 9 -57 5 0 29 0 53 1 46 2 57 -8 235 -201 l68 -74 55 60 c31 33 89 96 130
139 41 43 74 81 74 84 0 2 15 17 33 33 l32 28 3 -69 3 -69 -55 -58 c-30 -32
-91 -96 -135 -143 -62 -65 -81 -92 -82 -115 0 -16 -1 -130 -2 -252 0 -123 -3
-224 -6 -224 -3 -1 -29 -3 -56 -4 l-51 -2 1 250 0 250 -30 33 c-16 18 -61 68
-100 110 -38 42 -83 91 -100 109 -114 119 -251 268 -253 276 -2 5 26 9 61 9
60 0 67 -2 90 -29z m1414 -28 l-2 -58 -102 -1 -101 0 -4 30 c-1 17 -2 43 0 59
l3 27 104 0 104 0 -2 -57z m684 44 c2 -17 2 -69 0 -88 -1 -13 -17 -16 -99 -16
l-98 0 2 56 c1 31 2 57 3 58 0 1 44 2 96 2 69 1 95 -3 96 -12z m-684 -280 l1
-137 -61 1 c-34 1 -79 1 -99 0 l-38 -1 0 -90 0 -90 99 0 100 0 -1 -140 0 -140
-104 0 c-57 0 -104 3 -104 8 -1 10 -1 694 0 714 0 21 24 24 125 18 l80 -5 2
-138z m-2 -227 l0 -55 -80 0 -80 0 -1 50 c-1 28 1 53 3 57 2 4 38 6 81 5 l77
-2 0 -55z m541 3 c-1 -50 -3 -56 -23 -59 -13 -2 -24 -1 -24 4 -4 24 -5 98 -2
105 2 4 15 7 27 7 22 0 24 -4 22 -57z m-540 -460 l-1 -58 -155 0 -155 0 0 35
c1 34 2 35 39 35 30 0 41 5 49 22 8 19 17 21 117 22 l107 2 -1 -58z m685 45
c0 -7 1 -33 2 -58 l1 -45 -84 -1 c-119 -3 -121 -2 -118 54 2 26 7 50 13 54 18
14 185 9 186 -4z"/>
</g>
</svg>
